# xmcd
#
# Track frame offsets: 
#        150
#        14857
#        30862
#        48346
#        59770
#        73984
#        91586
#        105098
#        116738
#        146364
#        158845
#        177036
#        192215
#        208231
#        220841
#        235749
#        251266
#
# Disc length: 3560 seconds
#
# Revision: 0
# Processed by: cddbd v1.5.2PL0 Copyright (c) Steve Scherf et al.
# Submitted via: ExactAudioCopy v0.95b3
#
DISCID=e60de611
DTITLE=Jimi Hendrix  - Are You Experienced and 3 Early Singles - MONO  
DYEAR=1900
DGENRE=
TTITLE0=Foxy Lady
TTITLE1=Manic Depressions
TTITLE2=Red House
TTITLE3=Can You See Me
TTITLE4=Love Or Confusion
TTITLE5=I Don't live today
TTITLE6=May this Be Love
TTITLE7=Fire
TTITLE8=Third Stone From The Sun
TTITLE9=Remember
TTITLE10=Are You Experienced
TTITLE11=Hey Joe
TTITLE12=Stone Free
TTITLE13=Purple Haze
TTITLE14=51th Anniversary
TTITLE15=The Wind Cries Mary
TTITLE16=Highway Chile
EXTD=
EXTT0=
EXTT1=
EXTT2=
EXTT3=
EXTT4=
EXTT5=
EXTT6=
EXTT7=
EXTT8=
EXTT9=
EXTT10=
EXTT11=
EXTT12=
EXTT13=
EXTT14=
EXTT15=
EXTT16=
PLAYORDER=
